<svg width="520" height="629" viewBox="0 0 520 629" fill="none" xmlns="http://www.w3.org/2000/svg">
<g id="Group 1">
<path id="community_1" d="M327.511 44.5L314.511 7.5H327.511L322.011 0.5H340.011L351.011 29.5V44.5H327.511Z" fill="#D9D9D9" stroke="black"/>
<path id="community_2" d="M328.511 45V56.5H310.011V69H289.511L284.511 45V9.5H314.011L328.511 45Z" fill="#D9D9D9" stroke="black"/>
<path id="community_3" d="M330.011 79.5V104.5H339.511L344.011 116H371.011L370.011 111.5V103L371.011 101.5H378.011V104.5L383.511 101.5L381.511 97H375.011L368.511 92.5L364.511 87V77.5H361.011L358.011 79.5H330.011Z" fill="#D9D9D9" stroke="black"/>
<path id="community_4" d="M289.511 70V73.5L291.011 79L292.011 85H293.511V89L294.511 91L303.511 101V103.5L304.511 104.5H329.511L328.511 56.5H310.511V69H292.011H289.511V70Z" fill="#D9D9D9" stroke="black"/>
<path id="community_5" d="M330.511 105V153H319.511V152L318.511 151H317.011L315.511 150L314.511 149V148H313.511V146H310.011L309.011 145V142.5L304.511 137V134H303.511V127L301.511 124.5V122.5L304.511 118.5V105H330.511Z" fill="#D9D9D9" stroke="black"/>
<path id="community_6" d="M330.511 105.5V152.5H384.011V148H381.511V142.5H380.511V139H374.511V135.5L372.011 132.5V129.5H376.011V126.5H374.511V124H373.011V121L372.011 116.5H344.011L339.511 105H330.511V105.5Z" fill="#D9D9D9" stroke="black"/>
<path id="community_7" d="M330.511 153.5V152.5H383.511V158H384.511V166.5H386.511V172.5H388.011V176H389.011L389.511 178.5L394.011 183H395.511V185.5L390.511 187L351.511 188V183L348.011 179.5H343.511L337.011 169L329.511 166.5V161H327.511V160H323.511L319.511 153.5H330.511Z" fill="#D9D9D9" stroke="black"/>
<path id="community_8" d="M351.011 189L349.511 190.5H351.011V196.5V199.5L354.011 205H359.011L361.511 209.5H368.011V212L369.011 218L374.011 224.5L375.011 227H388.511L390.011 224.5H405.511V223H411.011V219.5H424.511V218H419.011V212H409.511L405.511 217L398.011 203L392.011 198L391.011 187.5H352.011L351.011 189Z" fill="#D9D9D9" stroke="black"/>
<path id="community_9" d="M148.511 10.5L146.511 11.5V15.5L149.511 16.5V23.5H146.511V47H160.511L161.511 50H166.011V10.5H148.511Z" fill="#D9D9D9" stroke="black"/>
<path id="community_10" d="M146.511 47.5V54.5L145.511 56V67H139.511V72H142.511L144.011 69.5V81L142.511 82H133.511V84V86.5L135.511 87.5H140.511L142.511 84H149.511V86.5H150.511V91.5H153.511V84H165.511V94H171.511V93H189.511V69.5H200.511V52L194.511 48.5V45.5H199.011V37H195.511V40.5H193.011V42.5H188.011L187.011 40.5H185.511L184.511 39H178.011L176.511 42.5H174.511L173.511 39H166.511V50.5H161.511L159.511 47.5H146.511Z" fill="#D9D9D9" stroke="black"/>
<path id="community_11" d="M189.511 69.5V93.5H215.011V95H233.511V87H229.511V76.5L223.511 64V62H222.511V59.5H220.511V56L219.011 58H216.011H215.011L213.511 59.5H209.511V56L206.511 54V52.5L209.511 50.5V45.5H195.011V49L201.011 52.5V69.5H189.511Z" fill="#D9D9D9" stroke="black"/>
<path id="community_12" d="M187.011 40.5L196.011 34L188.511 23.5V21.5H199.511V16H202.011V21.5H207.511V24.5H208.511V27H210.011V31L215.011 36H217.011L215.011 34L214.011 27H221.011V38.5L232.011 46H264.511C260.677 52.5 252.511 65.2 250.511 64C248.511 62.8 249.677 67.1667 250.511 69.5H238.511V92H239.511V94.5H234.011V87H230.011V77L223.511 64V62H222.511V59.5H221.011V55L219.011 58.5H215.011L214.011 59.5H210.011V56L206.511 54V52.5L210.011 50.5V45H199.511V37H196.011V40.5H193.011V42H188.511L187.011 40.5Z" fill="#D9D9D9" stroke="black"/>
<path id="community_13" d="M239.011 82V69.5H251.011C249.844 67.1667 248.011 62.8 250.011 64C252.011 65.2 261.177 52.5 265.511 46H284.511L289.511 69.5V74L291.511 84H285.511L282.511 88H277.511L274.011 84H270.011L267.511 83V80.5H264.011V82V88H258.011V85.5H256.511V84V82H239.011Z" fill="#D9D9D9" stroke="#131212"/>
<path id="community_14" d="M260.511 106H304.511L303.511 103.5V101.5L294.511 91L293.511 89V85H292.011V84H285.511L282.011 88H277.511L274.011 84H270.011L267.511 83V80.5H264.011V88H258.011V85.5H256.511V82H238.511V92H239.511V94.5H250.511V97H251.511V98H252.511H253.511V99H254.511V100.5H255.511V101.5L257.011 102V103.5H258.011L259.011 104.5L260.511 106Z" fill="#D9D9D9" stroke="#090909"/>
<path id="community_15" d="M190.511 94V120H203.511V143H246.011V139H244.511V136.5H246.011V119L244.511 114.5L241.011 108.5L242.511 105.5L239.511 103V95L233.511 94V95H215.011V94H190.511Z" fill="#D9D9D9" stroke="#090909"/>
<path id="community_16" d="M246.011 142H264.511V129H303.011V127L301.511 124.5V122.5L304.511 118.5V106H260.511L258.011 103.5H257.011V102L255.511 101.5V100.5H254.511V99H253.511V98H251.511V97H250.511V94.5H239.511V103L242.511 105.5L241.011 108.5L244.511 114.5L246.011 119V136.5H244.511V139.5H246.011V142Z" fill="#D9D9D9" stroke="#090909"/>
<path id="community_17" d="M190.511 120H203.511V142.5L166.011 144V150.5H154.511V144H132.011V133H129.511V108.5H133.511L134.511 110.5V114H135.511V121L164.511 120L181.511 107H190.511V120Z" fill="#D9D9D9" stroke="#090909"/>
<path id="community_18" d="M166.011 144.5L167.011 168.5L187.011 178L186.011 143.5L166.011 144.5Z" fill="#D9D9D9" stroke="#090909"/>
<path id="community_19" d="M186.011 143.5L187.011 177L189.511 179H223.511L224.511 181.5H232.011V182.5H238.511H246.511V143.5H186.011Z" fill="#D9D9D9" stroke="#090909"/>
<path id="community_20" d="M247.011 182.5L249.011 184H271.011L268.511 181V175.5H265.511V166L254.511 142.5H247.011V182.5Z" fill="#D9D9D9" stroke="#090909"/>
<path id="community_21" d="M260.011 154L313.011 153.5V146.5H310.511L309.011 145V142.5L304.511 137V134H303.511V129H264.511V142.5H255.011L260.011 154Z" fill="#D9D9D9" stroke="#090909"/>
<path id="community_22" d="M271.511 184H320.511V182.5H326.511H341.511L344.011 180.5L337.011 169L329.511 166.5V161H327.511V160H323.511L319.511 153.5V151.5L318.011 151H317.011L314.511 149V148H313.511V153.5H260.011L266.011 166.5L265.511 175.5H268.511V181.5L271.511 184Z" fill="#D9D9D9" stroke="#090909"/>
<path id="community_23" d="M247.011 183V227L309.511 226V219.5L303.011 215.5V213H296.511V207H290.511V189.5H296.511V184H249.011L247.011 183Z" fill="#D9D9D9" stroke="#090909"/>
<path id="community_24" d="M310.011 226H315.511V225H363.011H373.511L369.511 218L367.511 212.5V209.5H362.011L359.011 205H354.011L351.011 199.5V190.5H349.011L352.011 188V183L348.011 180H343.511L344.511 181L342.011 183H321.011V184.5H296.511V189.5H290.511V207H296.511V213.5H303.511V216L310.011 220V226Z" fill="#D9D9D9" stroke="#090909"/>
<path id="community_25" d="M167.011 169V193L204.511 192L207.011 264H249.511L248.011 228H246.511V182.5H232.011V181.5H224.511L223.511 179H190.011L187.011 177V178.5L167.011 169Z" fill="#D9D9D9" stroke="#090909"/>
<path id="community_26" d="M249.511 259L258.011 254.5V259H274.011V227.5H248.511L249.511 259Z" fill="#D9D9D9" stroke="#090909"/>
<path id="community_27" d="M274.011 227V256H291.511V257H309.511V237.5H308.511V231.5H309.511V226L274.011 227Z" fill="#D9D9D9" stroke="#090909"/>
<path id="community_28" d="M310.011 257V260L313.011 266.5V273.5H317.011V275.5H326.511V273.5H347.011V272H374.011V275.5H380.011V253H378.511V247.5H377.511V245V244H376.011V227.5L374.011 225H316.011V226H310.011V231.5H308.511V238H310.011V257Z" fill="#D9D9D9" stroke="#090909"/>
<path id="community_29" d="M249.511 259.5L250.511 297H252.511L267.511 291H272.511V287.5H283.511L286.011 285.5V283H296.011V280H305.011L314.511 278.5V274H313.011V266L310.011 260.5V257H291.511V256H274.011V259.5H258.011V254.5L249.511 259.5Z" fill="#D9D9D9" stroke="#090909"/>
<path id="community_30" d="M314.511 315V278.5L305.011 280H296.011V283H286.011V285.5L284.011 287.5H272.511V291H267.511L253.011 297H250.511L252.011 341.5L314.511 315Z" fill="#D9D9D9" stroke="#090909"/>
<g id="community_31">
<path d="M314.511 315.5C319.607 312.818 321.541 311.784 322.061 311.495L322.011 311.5C322.23 311.39 322.316 311.353 322.061 311.495L341.511 309.5L343.511 307V299.5L351.011 293H354.511L369.011 290L380.011 275.5H374.011V272.5H347.011V273.5H326.511V275.5H317.011V273.5H314.511V315.5Z" fill="#D9D9D9"/>
<path d="M322.061 311.495C321.541 311.784 319.607 312.818 314.511 315.5V273.5H317.011V275.5H326.511V273.5H347.011V272.5H374.011V275.5H380.011L369.011 290L354.511 293H351.011L343.511 299.5V307L341.511 309.5L322.061 311.495ZM322.061 311.495L322.011 311.5C322.23 311.39 322.316 311.353 322.061 311.495Z" stroke="#090909"/>
</g>
<path id="community_32" d="M380.011 259.5H398.511L402.511 257.5V235L406.511 232.5H409.511V226L419.511 225.5L411.011 223H405.511V224.5H390.011L388.511 227H376.011V244H377.511V247.5H378.511V253H380.011V259.5Z" fill="#D9D9D9" stroke="#090909"/>
<path id="community_33" d="M380.511 260V275.5H385.011V283.5H387.011V296H412.011V292H411.011V284.5L410.011 283.5V281L406.011 277H407.011V268L405.511 267.5V264L407.011 262.5H409.011L410.011 264V268L409.011 269V273H410.011L410.511 283H414.511V271H415.511V267.5H414.511V267H413.511V263.5H417.011L415.511 260L414.511 259L413.511 258.5L410.511 261.5H407.511V257H402.511L399.011 259.5L380.511 260Z" fill="#D9D9D9" stroke="#080805"/>
<path id="community_34" d="M379.511 275.5H385.011V283.5H387.011V295.5H385.011L386.011 319.5L387.511 320.5V332H380.511L378.011 329V300.5H375.511V295.5H371.011V291.5L369.011 290L379.511 275.5Z" fill="#D9D9D9" stroke="#080805"/>
<path id="community_35" d="M388.011 332H407.011L408.511 331V326L409.511 324.5V319.5H419.511V315.5H417.011V311.5H415.511V307.5L418.511 306V304.5L415.511 306L414.511 303.5H413.511V300H412.011V296H385.011L386.011 319.5L388.011 321.5V332Z" fill="#D9D9D9" stroke="#080805"/>
<path id="community_36" d="M409.011 331H414.511V343.5H433.511V341.5L429.011 337V332H428.011V335H425.011L423.511 331L425.011 329.5H427.011V327L419.511 320H410.011V325L408.511 326L409.011 331Z" fill="#D9D9D9" stroke="#080805"/>
<path id="community_37" d="M378.511 332H387.511V380H378.511V332Z" fill="#D9D9D9" stroke="#080805"/>
<path id="community_38" d="M387.511 368H416.011V344H414.511V331.5H408.511L407.011 332.5H387.511V368Z" fill="#D9D9D9" stroke="#080805"/>
<g id="community_39">
<path d="M416.011 367H438.011H447.511L449.011 365.5L447.511 363L441.011 357.5V355H439.511V351.5H438.011L433.011 344H416.011V367Z" fill="#D9D9D9"/>
<path d="M416.011 367C440.411 367 440.844 367 438.011 367M416.011 367V344H433.011L438.011 351.5H439.511V355H441.011V357.5L447.511 363L449.011 365.5L447.511 367H438.011M416.011 367H438.011" stroke="#080805"/>
</g>
<path id="community_40" d="M387.511 368L388.011 399H391.511V400H392.511V404.5H398.511L399.011 403.5H404.511V394.5H416.011L415.511 368H387.511Z" fill="#D9D9D9" stroke="#080805"/>
<path id="community_41" d="M416.011 394H452.511V390.5H453.511V389L449.511 386V380L455.011 377.5V376H451.011L448.511 373.5V366L447.511 367H416.011V368H415.511L416.011 394Z" fill="#D9D9D9" stroke="#080805"/>
<g id="community_42">
<path d="M417.011 415H462.011H466.511V413.5H465.011V411.5L460.011 406.5L458.011 403.5V407.5V411H454.511V406.5L458.011 402H462.011L463.511 401V397.5H465.011V395.5H462.011L462.511 400.5H458.011L453.511 397.5V395.5L452.511 394H416.511V395H405.011V416L416.511 427.5L417.011 415Z" fill="#D9D9D9"/>
<path d="M417.011 415C456.611 415 463.511 415 462.011 415M417.011 415L416.511 427.5L405.011 416V395H416.511V394H452.511L453.511 395.5V397.5L458.011 400.5H462.511L462.011 395.5H465.011V397.5H463.511V401L462.011 402H458.011L454.511 406.5V411H458.011V407.5V403.5L460.011 406.5L465.011 411.5V413.5H466.511V415H462.011M417.011 415H462.011" stroke="#080805"/>
</g>
<path id="community_43" d="M429.511 440L442.011 451.5L484.011 450.5L488.011 445.5H493.511V443.5L497.511 441L493.511 434.5H490.511V438.5H486.511L473.011 429V426.5H475.011V422H470.011L469.011 417L467.011 415.5H434.011V426.5H432.011V432L429.511 435.5V440Z" fill="#D9D9D9" stroke="#080805"/>
<path id="community_44" d="M375.511 452H410.511V451H429.011V455H427.511V458.5H429.011V463H427.511V469H428.511V471.5H429.511V474.5V476H424.511V477.5H423.511V481.5H422.511V487.5H421.011V497H419.511V499.5L404.011 488.5H392.511L382.511 476.5V465H375.511V452Z" fill="#D9D9D9" stroke="#080805"/>
<path id="community_45" d="M429.511 442H431.511L467.511 474.5H429.511V471.5H428.511V469H427.511V463H429.511V458.5H427.511V455H429.511V442Z" fill="#D9D9D9" stroke="#080805"/>
<path id="community_46" d="M442.511 451.5L483.511 450.5L488.011 445.5H493.511V447H494.511V449H500.011V450.5L510.511 455.5V466H499.011V468.5H510.511V466.5H518.011V467.5H512.011V470.5H513.011V481.5L495.511 491.5V498H491.511L442.511 451.5Z" fill="#D9D9D9" stroke="#080805"/>
<path id="community_47" d="M419.511 497V500H441.511L431.011 476H424.511V477.5H423.511V481.5H422.511V487.5H421.011V497H419.511Z" fill="#D9D9D9" stroke="#080805"/>
<path id="community_48" d="M440.511 497H467.511V498.5H491.511L467.511 474.5H429.511V475.5H431.011L440.511 497Z" fill="#D9D9D9" stroke="#080805"/>
<path id="community_49" d="M420.511 501L410.011 560H372.511V524.5H383.511V477.5L393.011 489H404.011L420.511 501Z" fill="#D9D9D9" stroke="#080805"/>
<path id="community_50" d="M410.511 560.5H423.511L430.511 540L441.011 523.5H443.511V501.5L441.011 500H421.011L410.511 560.5Z" fill="#D9D9D9" stroke="#080805"/>
<path id="community_51" d="M423.511 561.5V578.5L439.511 602.5H446.011V604H475.511V588.5L479.011 584.5L484.011 595.5L494.511 604V593H493.011V584.5V533H494.511V530.5H491.511V522L496.011 518V513L498.011 511.5V509H496.011V498.5H491.511H467.511V497H440.511L441.511 500L443.511 501.5V523H441.511L430.511 540L423.511 561.5Z" fill="#D9D9D9" stroke="#080805"/>
<path id="community_52" d="M495.511 492V498.5V509.5H498.511V511.5L495.511 512.5V517.5L491.511 521.5V530H495.511V532.5H493.011V565H499.511V561H512.011V549H518.511L519.011 520.5L514.011 517.5L517.511 513.5L514.011 512.5V509.5L515.011 507H518.511V504.5H517.511V500.5H518.511V484.5L513.011 481.5L495.511 492Z" fill="#D9D9D9" stroke="#080805"/>
<path id="community_53" d="M410.011 561L403.011 604.5L398.011 598H395.011L385.011 607H367.011V597H373.511V585.5H349.511V561H410.011Z" fill="#D9D9D9" stroke="#080805"/>
<path id="community_54" d="M405.011 628.5H452.011V621.5L423.511 579V561H410.011L403.011 604.5V609.5L400.511 614.5V619H405.011V628.5Z" fill="#D9D9D9" stroke="#080805"/>
<path id="community_55" d="M452.511 627H518.511V549H512.011V561H499.511V565H493.511V593H495.011V605L484.011 595.5L479.511 584L475.511 589V604H446.011V602.5H438.511L452.511 621.5V627Z" fill="#D9D9D9" stroke="#080805"/>
<path id="community_56" d="M173.511 396H252.511L251.011 335.5H243.511V345.5L233.511 350V372.5H178.011L173.511 375.5V396Z" fill="#D9D9D9" stroke="#080805"/>
<path id="community_57" d="M252.011 342L282.011 329V365.5L264.511 374.5V377H255.511V380H252.011V342Z" fill="#D9D9D9" stroke="#080805"/>
<path id="community_58" d="M282.011 365H319.011V334L314.511 326.5V315.5L282.011 329.5V365Z" fill="#D9D9D9" stroke="#080805"/>
<path id="community_59" d="M318.511 333H353.011V319L344.511 310.5V307L341.511 309.5L322.511 311.5L314.511 315.5V326L318.511 333Z" fill="#D9D9D9" stroke="#080805"/>
<path id="community_60" d="M353.011 332H380.511L378.011 329.5V300.5H375.511V295.5H371.011V291.5L369.011 290L354.511 293H350.511L343.511 299.5V307L344.511 306V311L353.011 319V332Z" fill="#D9D9D9" stroke="#080805"/>
<path id="community_61" d="M319.511 333.5V363.5H325.511V381.5H378.011V332.5H353.011V333.5H319.511Z" fill="#D9D9D9" stroke="#080805"/>
<path id="community_62" d="M253.011 395.5H283.511V365H282.511L264.511 374.5V376.5H255.511V380H252.011L253.011 395.5Z" fill="#D9D9D9" stroke="#080805"/>
<path id="community_63" d="M284.011 395H325.511V364H319.511V365.5H284.011V395Z" fill="#D9D9D9" stroke="#080805"/>
<path id="community_64" d="M174.511 396L175.011 415.5L247.511 415V420H254.011V396H174.511Z" fill="#D9D9D9" stroke="#080805"/>
<path id="community_65" d="M248.511 420.5V450H273.511V436L284.011 442.5V395.5H254.011V420.5H248.511Z" fill="#D9D9D9" stroke="#080805"/>
<path id="community_66" d="M284.511 442H327.011L326.511 395H284.511V442Z" fill="#D9D9D9" stroke="#080805"/>
<path id="community_67" d="M327.511 441H357.011L356.011 382H325.511V395H327.511V441Z" fill="#D9D9D9" stroke="#080805"/>
<path id="community_68" d="M357.511 440.5H369.511V444H376.011V440.5H379.511V437.5H381.011V425.5H382.011V422H386.011V416H387.011V404.5H388.011V399V380H378.511V382H356.011L357.511 440.5Z" fill="#D9D9D9" stroke="#080805"/>
<path id="community_69" d="M374.511 444.5V452H410.511V451H429.511V442H431.011L429.511 440V436L432.011 432V427H434.511V415.5H417.011V428.5L404.511 415.5V404H399.011L398.011 405H392.511V400H391.511V399H388.011V404H387.011V416.5H386.011V422H382.011V426H381.011V437H379.011V440.5H376.011V444.5H374.511Z" fill="#D9D9D9" stroke="#080805"/>
<path id="community_70" d="M249.511 480L335.011 478.5L328.011 469.5V442.5H284.511L273.511 436V450.5H249.511V480Z" fill="#D9D9D9" stroke="#080805"/>
<path id="community_71" d="M335.511 479L340.011 487H343.511V483H366.511L365.511 489L366.511 487H369.511V490H383.511V477.5L382.011 476.5V465H375.011V452H374.011V444H369.511V440.5H327.511V442.5V469.5L335.511 479Z" fill="#D9D9D9" stroke="#080805"/>
<path id="community_72" d="M306.011 538.5H351.511L356.511 525L340.511 487.5L335.511 479H322.011L323.011 514.5H310.511V525H306.011V538.5Z" fill="#D9D9D9" stroke="#080805"/>
<path id="community_73" d="M352.511 537H372.011V524.5H383.511V490H369.511V487H367.011L365.511 488.5L367.011 483L343.511 483.5V487H340.511L356.511 524.5L352.511 537Z" fill="#D9D9D9" stroke="#080805"/>
<path id="community_74" d="M251.511 564.5H287.011V570H294.511V563.5H300.511V560.5L302.011 557.5H306.011V525H299.511V527.5H287.011V518L284.011 515H275.011V552.5H251.511V564.5Z" fill="#D9D9D9" stroke="#080805"/>
<path id="community_75" d="M306.511 551H311.011L312.011 549.5V539H351.511L352.511 537H372.511V561H350.011V574.5H319.011V562.5H306.511V551Z" fill="#D9D9D9" stroke="#080805"/>
<path id="community_76" d="M131.511 145.5H113.511L110.011 141V135.5H108.511V131H106.011V124.5L108.511 122.5H117.511V115.5H102.011V112L106.011 103.5V99V88L102.011 90L97.0106 88H75.0106V114L59.5106 112V124.5H44.5106L36.5106 122.5H32.5106V114L23.5106 112V119.5L18.0106 117.5V110.5H10.5106V100.5H8.51062V97.5L2.51062 102L0.51062 54.5L2.51062 53V49.5H4.51062V45.5H0.51062V41H6.51062V29H10.5106V35H8.51062V41L12.0106 35H13.5106V38.5H20.5106V41H26.0106V33.5H32.5106V27.5H35.0106V33.5H40.0106V26H44.5106L58.0106 33.5L63.5106 38.5H58.0106H51.5106L47.5106 35L44.5106 36.5L53.0106 41L69.0106 44L69.5106 50.5H75.0106L78.5106 65.5H81.5106V73.5V77.5H84.0106V80.5H81.5106V85H97.0106V80.5L106.011 73.5L104.011 64H106.011L104.011 60.5H113.511L128.511 64H133.511L139.011 65.5V68H133.511L131.511 70.5V73.5H139.011V77.5L133.511 80.5L131.511 83.5H123.011V85H127.011V90H130.011V91.5H123.011V88L116.511 88.5V97.5H128.511V133H131.511V145.5Z" fill="#D9D9D9" stroke="#080805"/>
<path id="community_77" d="M330.011 79.5H358.011L361.011 77.5L358.011 73.5V65.5H359.511V62.5L358.011 64L354.011 61V43H351.011V44L329.011 45L330.011 79.5Z" fill="#D9D9D9" stroke="#080805"/>
</g>
</svg>
